<svg xmlns="http://www.w3.org/2000/svg" version="1.1" xmlns:xlink="http://www.w3.org/1999/xlink" xmlns:svgjs="http://svgjs.dev/svgjs" viewBox="0 0 800 800"><defs><linearGradient x1="50%" y1="0%" x2="50%" y2="100%" id="uundulate-grad"><stop stop-color="hsl(162, 100%, 58%)" stop-opacity="1" offset="45%"></stop><stop stop-color="hsl(270, 73%, 53%)" stop-opacity="1" offset="100%"></stop></linearGradient></defs><g stroke-width="2" stroke="url(#uundulate-grad)" fill="none"><path d="M670.9379647899352 126.9660457964028C699.0479504855894 201.61104864695682 575.9007735807195 436.7789930718866 466.8806188478071 553.2384145348503C357.86046411489474 669.6978359978142 204.67349054572372 729.7204035796601 147.64122207195533 685.9712688186289C90.60895359818693 642.2221340575977 154.7275082077374 445.54024850824146 193.12573017371903 343.24256768190025C231.52395213970067 240.94488685555893 232.40847196362245 240.00000957833606 331.9526875086674 194.94240085219064C431.49690305371246 149.88479212604528 642.827979094281 52.321042945848774 670.9379647899352 126.9660457964028C699.0479504855894 201.61104864695682 575.9007735807195 436.7789930718866 466.8806188478071 553.2384145348503 "></path><path d="M658.622602754029 139.37666481959542C685.4548618271535 210.62871299512426 567.9052838725049 435.1072054007391 463.84059071836134 546.2730167972045C359.77589756421764 657.43882819367 213.5519682481908 714.7330972490685 159.1120756141392 672.9725595226295C104.67218298008754 631.2120217961907 165.87625783465847 443.4702219536233 202.52910607491367 345.82243571029755C239.1819543151688 248.1746494669718 240.02626869254868 247.2727211568954 335.0457471673644 204.2631855546657C430.06522564218005 161.25364995243598 631.7903436809046 68.12461664406658 658.622602754029 139.37666481959542C685.4548618271535 210.62871299512426 567.9052838725049 435.1072054007391 463.84059071836134 546.2730167972045 "></path><path d="M646.3072407181229 151.78728384278804C671.8617731687176 219.6463773432917 559.9097941642905 433.43541772959156 460.80056258891557 539.3076190595586C361.69133101354066 645.1798203895257 222.43044595065794 699.7457909184766 170.58292915632302 659.97385022663C118.7354123619881 620.2019095347835 177.0250074615795 441.40019539900504 211.93248197610825 348.40230373869485C246.839956490637 255.40441207838455 247.64406542147492 254.54543273545465 338.13880682606134 213.58397025714066C428.63354823064765 172.62250777882667 620.7527082675283 83.92819034228438 646.3072407181229 151.78728384278804C671.8617731687176 219.6463773432917 559.9097941642905 433.43541772959156 460.80056258891557 539.3076190595586 "></path><path d="M633.9918786822168 164.19796390113692C658.2686845102817 228.6641027266154 551.914304456076 431.7636910936002 457.7605344594698 532.342282357069C363.60676446286357 632.9208736205378 231.30892365312502 684.758545623041 182.0537826985069 646.9752019657867C132.7986417438887 609.1918583085326 188.1737570885005 439.33022987954314 221.33585787730283 350.9822328022483C254.49795866610515 262.6342357249536 255.26186215040116 261.81820534917017 341.23186648475826 222.90481599477192C427.20187081911536 183.99142664037362 609.7150728541518 99.73182507565843 633.9918786822168 164.19796390113692C658.2686845102817 228.6641027266154 551.914304456076 431.7636910936002 457.7605344594698 532.342282357069 "></path><path d="M621.6765166463106 176.60861344190766C644.6755958518459 237.68179759236097 543.9188147478615 430.0919339400308 454.720506330024 525.3769151370012C365.5221979121866 620.6618963339715 240.18740135559216 669.7712698100273 193.5246362406907 633.9765231873655C146.86187112578932 598.1817765647036 199.32250671542153 437.260233842503 230.7392337784974 353.5621313482237C262.1559608415733 269.86402885394455 262.87965887932745 269.0909474453076 344.3249261434552 232.22563121482506C425.77019340758295 195.3603149843425 598.6774374407754 115.53542929145436 621.6765166463106 176.60861344190766C644.6755958518459 237.68179759236097 543.9188147478615 430.0919339400308 454.720506330024 525.3769151370012 "></path><path d="M609.3611546104045 189.0192324651003C631.08250719341 246.6994619405284 535.9233250396469 428.4201462688832 451.68047820057825 518.4115173993553C367.4376313615095 608.4028885298274 249.06587905805924 654.7839634794354 204.99548978287459 620.9778138913659C160.92510050768988 587.1716643032964 210.47125634234254 435.19020728788473 240.142609679692 356.141999376621C269.81396301704143 277.09379146535736 270.4974556082537 276.36365902386694 347.4179858021521 241.5464159173C424.33851599605055 206.7291728107332 587.6398020273989 131.33900298967222 609.3611546104045 189.0192324651003C631.08250719341 246.6994619405284 535.9233250396469 428.4201462688832 451.68047820057825 518.4115173993553 "></path><path d="M597.0457925744984 201.42986674708197C617.4894185349741 255.7171415474849 527.9278353314323 426.7483738565247 448.6404500711325 511.4461349204985C369.3530648108325 596.1438959844722 257.9443567605263 639.7966724076327 216.4663433250584 607.9791198541557C174.9883298895905 576.1615673006784 221.62000596926356 433.12019599205564 249.54598558088657 358.7218826638074C277.4719651925096 284.3235693355592 278.11525233718 283.6363858612153 350.51104546084906 250.86721587856414C422.90683858451814 218.09804589591295 576.6021666140225 147.1425919466791 597.0457925744984 201.42986674708197C617.4894185349741 255.7171415474849 527.9278353314323 426.7483738565247 448.6404500711325 511.4461349204985 "></path><path d="M584.7304305385921 213.84050102906372C603.8963298765382 264.7348211544414 519.9323456232179 425.0766014441663 445.6004219416866 504.4807524416416C371.2684982601554 583.8849034391169 266.82283446299346 624.80938133583 227.93719686724228 594.9804258169452C189.0515592714911 565.1514702980603 232.76875559618463 431.05018469622644 258.94936148208114 361.30176595099374C285.12996736797777 291.55334720576104 285.7330490661062 290.9091126985636 353.604105119546 260.18801583982815C421.47516117298574 229.4669189810927 565.5645312006461 162.94618090368596 584.7304305385921 213.84050102906372C603.8963298765382 264.7348211544414 519.9323456232179 425.0766014441663 445.6004219416866 504.4807524416416 "></path><path d="M572.415068502686 226.2511353110454C590.3032412181024 273.752500761398 511.93685591500343 423.4048290318078 442.5603938122408 497.5153699627848C373.18393170947843 571.6259108937618 275.70131216546054 609.8220902640273 239.4080504094261 581.9817317797348C203.1147886533917 554.1413732954422 243.91750522310565 428.98017340039723 268.3527373832758 363.8816492381801C292.7879695434459 298.78312507596297 293.35084579503246 298.181839535912 356.69716477824295 269.5088158010922C420.04348376145333 240.83579206627246 554.5268957872697 178.74976986069282 572.415068502686 226.2511353110454C590.3032412181024 273.752500761398 511.93685591500343 423.4048290318078 442.5603938122408 497.5153699627848 "></path><path d="M560.0997064667799 238.66175433423803C576.7101525596664 282.77016510956537 503.94136620678887 421.7330413606603 439.52036568279516 490.54997222513884C375.0993651588014 559.3669030896175 284.5797898679277 594.8347839334356 250.87890395160997 568.9830224837353C217.17801803529227 543.1312610340351 255.06625485002667 426.9101468457791 277.75611328447036 366.4615172665774C300.44597171891405 306.0128876873757 300.9686425239587 305.4545511144713 359.79022443693987 278.82960050356724C418.6118063499209 252.20464989266316 543.4892603738933 194.55334355891063 560.0997064667799 238.66175433423803C576.7101525596664 282.77016510956537 503.94136620678887 421.7330413606603 439.52036568279516 490.54997222513884 "></path><path d="M547.7843444308737 251.07241913379784C563.1170639012305 291.7878752341 495.9458764985743 420.06129946587987 436.4803375533493 483.5846202638602C377.01479860812435 547.1079410618404 293.45826757039475 579.847523379211 262.3497574937938 555.984358964103C231.24124741719288 532.1211945489952 266.2150044769477 424.840166067528 287.15948918566494 369.0414310713419C308.1039738943822 313.2426960751558 308.586439252885 312.7273084693978 362.8832840956368 288.1504309824094C417.18012893838863 263.57355349542104 532.4516249605169 210.35696303349562 547.7843444308737 251.07241913379784C563.1170639012305 291.7878752341 495.9458764985743 420.06129946587987 436.4803375533493 483.5846202638602 "></path><path d="M535.4689823949676 263.48303815699046C549.5239752427947 300.80553958226744 487.95038679035974 418.38951179473236 433.4403094239035 476.61922252621423C378.93023205744737 534.8489332576962 302.3367452728619 564.8602170486191 273.82061103597766 542.9856496681035C245.3044767990935 521.1110822875879 277.3637541038687 422.77013951290974 296.5628650868595 371.6212990997392C315.76197606985033 320.47245868656853 316.2042359818112 320.0000200479571 365.9763437543337 297.4712156848844C415.74845152685623 274.94241132181173 521.4139895471405 226.16053673171348 535.4689823949676 263.48303815699046C549.5239752427947 300.80553958226744 487.95038679035974 418.38951179473236 433.4403094239035 476.61922252621423 "></path><path d="M523.1536203590615 275.8936571801831C535.9308865843589 309.82320393043494 479.9548970821452 416.71772412358484 430.4002812944577 469.6538247885684C380.84566550677033 522.5899254535519 311.21522297532897 549.8729107180274 285.29146457816154 529.9869403721041C259.36770618099405 510.1009700261808 288.5125037307897 420.7001129582916 305.9662409880541 374.2011671281365C323.4199782453185 327.70222129798134 323.82203271073746 327.2727316265164 369.06940341303067 306.7920003873594C414.3167741153238 286.3112691482024 510.37635413376415 241.96411042993128 523.1536203590615 275.8936571801831C535.9308865843589 309.82320393043494 479.9548970821452 416.71772412358484 430.4002812944577 469.6538247885684 "></path><path d="M510.83822780557716 288.30430672095383C522.3377674083448 318.84089879618045 471.9593768563526 415.0459669700154 427.3602226474339 462.68845756850055C382.76106843851517 510.33094816698576 320.0936701602179 534.8856349050136 296.76228760276723 516.9882615936828C273.43090504531654 499.0908882823518 299.66122284013267 418.6301169212515 315.3695863716706 376.78106567411186C331.0779499032085 334.9320144269723 331.4397989220856 334.5454737226538 372.16243255414946 316.11281560741253C412.88506618621335 297.68015749217125 499.33868820280964 257.7677146457272 510.83822780557716 288.30430672095383C522.3377674083448 318.84089879618045 471.9593768563526 415.0459669700154 427.3602226474339 462.68845756850055 "></path><path d="M498.52286576967106 300.71492574414646C508.74467874990887 327.85856314434795 463.96388714813804 413.37417929886783 424.3201945179881 455.7230598308547C384.6765018878381 498.0719403628416 328.97214786268506 519.8983285744218 308.2331411449511 503.9895522976833C287.49413442721715 488.08077602094465 310.8099724670537 416.5600903666333 324.7729622728652 379.36093370250916C338.7359520786767 342.1617770383851 339.05759565101187 341.81818530121313 375.25549221284643 325.43360030988754C411.45338877468095 309.04901531856194 488.30105278943313 273.571288343945 498.52286576967106 300.71492574414646C508.74467874990887 327.85856314434795 463.96388714813804 413.37417929886783 424.3201945179881 455.7230598308547 "></path><path d="M486.207518992554 313.1255752849172C495.1516053502621 336.8762580100935 455.96841269871265 411.70242214529844 421.28018164733135 448.75769261078693C386.59195059595015 485.8129630762754 337.8506408239412 504.9110527614082 319.704009945924 490.99087351926187C301.55737906790677 477.07069427711565 321.95873735276376 414.49009432959315 334.1763534328488 381.9408322484846C346.3939695129339 349.391570167376 346.67540763872717 349.0909273973505 378.3485671303324 334.7544155299406C410.0217266219376 320.41790366253076 477.2634326348458 289.37489255974094 486.207518992554 313.1255752849172C495.1516053502621 336.8762580100935 455.96841269871265 411.70242214529844 421.28018164733135 448.75769261078693 "></path><path d="M473.89217221543686 325.5361943081098C481.55853195061525 345.89392235826097 447.97293824928715 410.0306344741509 418.24016877667464 441.79229487314103C388.5073993040622 473.55395527213113 346.7291337851974 489.92374643081644 331.1748787468969 477.9921642232624C315.62062370859644 466.0605820157085 333.10750223847384 412.42006777497494 343.57974459283247 384.5207002768819C354.0519869471911 356.6213327787888 354.29321962644246 356.36363897590985 381.4416420478184 344.0752002324156C408.5900644691943 331.78676148892146 466.22581248025847 305.17846625795875 473.89217221543686 325.5361943081098C481.55853195061525 345.89392235826097 447.97293824928715 410.0306344741509 418.24016877667464 441.79229487314103 "></path><path d="M461.57681017953075 337.94682859009157C467.96544329217943 354.91160196521747 439.9774485410726 408.3588620617924 415.20014064722886 434.8269123942842C390.42283275338514 461.29496272677596 355.6076114876645 474.9364553590137 342.64573228908074 464.99347018605204C329.68385309049705 455.0504850130904 344.25625186539486 410.3500564791458 352.98312049402705 387.10058356406824C361.70998912265924 363.8511106489907 361.91101635536876 363.6363658132582 384.5347017065153 353.3960001936797C407.1583870576619 343.1556345741012 455.1881770668821 320.9820552149656 461.57681017953075 337.94682859009157C467.96544329217943 354.91160196521747 439.9774485410726 408.3588620617924 415.20014064722886 434.8269123942842 "></path><path d="M449.2614481436246 350.35746287207326C454.3723546337435 363.929281572174 431.9819588328581 406.6870896494339 412.1601125177831 427.86152991542735C392.33826620270816 449.0359701814208 364.48608919013157 459.9491642872109 354.1165858312646 451.99477614884165C343.7470824723976 444.0403880104723 355.4050014923159 408.28004518331664 362.3864963952216 389.6804668512546C369.3679912981274 371.0808885191925 369.528813084295 370.90909265060657 387.6277613652123 362.71680015494377C405.7267096461295 354.52450765928097 444.1505416535056 336.7856441719725 449.2614481436246 350.35746287207326C454.3723546337435 363.929281572174 431.9819588328581 406.6870896494339 412.1601125177831 427.86152991542735 "></path><path d="M436.94608610771843 362.76809715405494C440.7792659753076 372.9469611791305 423.9864691246436 405.01531723707546 409.1200843883373 420.8961474365705C394.2536996520311 436.77697763606557 373.3645668925987 444.9618732154082 365.58743937344843 438.9960821116312C357.8103118542982 433.03029100785426 366.55375111923695 406.2100338874875 371.7898722964162 392.2603501384409C377.0259934735955 378.3106663893944 377.14660981322123 378.1818194879549 390.7208210239092 372.03760011620784C404.29503223459716 365.8933807444607 433.11290624012923 352.5892331289794 436.94608610771843 362.76809715405494C440.7792659753076 372.9469611791305 423.9864691246436 405.01531723707546 409.1200843883373 420.8961474365705 "></path><path d="M424.63072407181227 375.1787314360366C427.18617731687175 381.964640786087 415.99097941642907 403.34354482471696 406.08005625889155 413.9307649577137C396.1691331013541 424.5179850907104 382.2430445950658 429.97458214360546 377.0582929156323 425.9973880744208C371.87354123619883 422.02019400523614 377.70250074615797 404.1400225916583 381.19324819761084 394.8402334256273C384.6839956490637 385.54044425959626 384.76440654214747 385.4545463253033 393.8138806826061 381.35840007747186C402.86335482306475 377.2622538296405 422.07527082675284 368.39282208598627 424.63072407181227 375.1787314360366C427.18617731687175 381.964640786087 415.99097941642907 403.34354482471696 406.08005625889155 413.9307649577137 "></path><path d="M412.31536203590616 387.5893657180183C413.5930886584359 390.9823203930435 407.9954897082145 401.6717724123585 403.0400281294458 406.96538247885684C398.08456655067704 412.25899254535517 391.1215222975329 414.98729107180276 388.5291464578161 412.9986940372104C385.9367706180994 411.01009700261807 388.851250373079 402.07001129582915 390.5966240988054 397.42011671281364C392.34199782453186 392.7702221297981 392.38220327107376 392.7272731626516 396.9069403413031 390.6792000387359C401.4316774115324 388.63112691482024 411.0376354133764 384.19641104299313 412.31536203590616 387.5893657180183C413.5930886584359 390.9823203930435 407.9954897082145 401.6717724123585 403.0400281294458 406.96538247885684 "></path></g></svg>